# xmcd
#
# Track frame offsets: 
#        150
#        17497
#        36606
#        54925
#        58054
#        72161
#        74776
#        94327
#        109696
#        126766
#        131188
#        154524
#        160043
#
# Disc length: 2325 seconds
#
# Revision: 0
# Processed by: cddbd v1.5.2PL0 Copyright (c) Steve Scherf et al.
# Submitted via: ExactAudioCopy v0.99pb5
#
DISCID=b809130d
DTITLE=Halfway - Any Old Love
DYEAR=2013
DGENRE=Alt Country
TTITLE0=Dropout
TTITLE1=Honey I Like You
TTITLE2=Hard Life Loving You
TTITLE3=Any Old Love Part 1
TTITLE4=Dulcify
TTITLE5=Any Old Love Part 2
TTITLE6=Shakespeare Hotel
TTITLE7=Factory Rats
TTITLE8=Erebus and Terror
TTITLE9=Any Old Love Part 3
TTITLE10=Sunlight On The Sills
TTITLE11=Any Old Love Part 4
TTITLE12=The Waking Hours
EXTD=
EXTT0=
EXTT1=
EXTT2=
EXTT3=
EXTT4=
EXTT5=
EXTT6=
EXTT7=
EXTT8=
EXTT9=
EXTT10=
EXTT11=
EXTT12=
PLAYORDER=
